<?xml version="1.0" standalone="no"?>
<!DOCTYPE svg PUBLIC "-//W3C//DTD SVG 20010904//EN"
 "http://www.w3.org/TR/2001/REC-SVG-20010904/DTD/svg10.dtd">
<svg version="1.0" xmlns="http://www.w3.org/2000/svg"
 width="128.000000pt" height="128.000000pt" viewBox="0 0 128.000000 128.000000"
 preserveAspectRatio="xMidYMid meet">

<g transform="translate(0.000000,128.000000) scale(0.100000,-0.100000)"
fill="#000000" stroke="none">
<path d="M600 1201 l-45 -6 -3 -142 -3 -143 -89 0 -89 0 6 55 6 55 -59 0 c-99
0 -104 4 -104 68 l0 55 -86 -6 c-47 -2 -87 -7 -89 -9 -3 -3 -45 -978 -45
-1045 0 -10 124 -13 619 -13 l619 0 6 63 c9 99 36 743 36 847 0 52 -3 112 -6
133 l-7 37 -128 0 -129 0 0 -70 0 -70 -101 0 -101 0 5 33 c4 17 7 61 8 97 l3
65 -90 1 c-49 1 -109 -1 -134 -5z m200 -26 c0 -10 -10 -15 -33 -15 -19 0 -68
-3 -110 -6 -67 -6 -77 -5 -77 9 0 12 13 17 58 20 141 9 162 8 162 -8z m0 -45
c0 -6 -45 -10 -115 -10 -70 0 -115 4 -115 10 0 6 45 10 115 10 70 0 115 -4
115 -10z m460 -75 l0 -75 -115 0 -115 0 0 75 0 75 115 0 115 0 0 -75z m-1060
35 c0 -22 -5 -30 -17 -30 -10 0 -42 -3 -70 -6 l-53 -7 0 31 c0 28 3 31 38 35
99 10 102 10 102 -23z m555 1 c-62 -8 -75 -16 -75 -46 0 -27 26 -41 46 -24 15
12 9 33 -7 24 -5 -4 -9 -1 -9 4 0 6 19 11 41 11 l42 0 -6 -97 c-3 -54 -11
-210 -17 -348 -14 -306 -16 -331 -37 -339 -22 -9 -60 4 -43 14 7 4 9 13 6 19
-10 16 -36 14 -42 -4 -6 -14 -8 -13 -19 1 -14 20 -45 12 -45 -11 0 -10 -10
-15 -30 -15 l-30 0 5 53 c10 94 35 558 35 637 l0 78 31 7 c17 4 33 4 36 1 4
-3 -2 -6 -11 -6 -10 0 -16 -6 -13 -12 6 -21 51 -16 55 6 6 28 -23 45 -64 39
-22 -4 -34 -2 -34 6 0 8 36 11 118 10 83 -1 103 -4 67 -8z m-555 -86 c0 -24
-2 -25 -75 -25 -73 0 -75 1 -75 25 0 24 2 25 75 25 73 0 75 -1 75 -25z m160
-50 l0 -55 -70 0 -70 0 0 55 0 55 70 0 70 0 0 -55z m650 12 c0 -42 -28 -57
-103 -57 -83 0 -97 7 -97 46 l0 33 98 4 c53 1 98 4 100 5 1 1 2 -13 2 -31z
m-814 -94 c-3 -49 -9 -199 -12 -335 l-6 -248 -76 0 -75 0 6 103 c4 56 9 192
12 302 3 110 8 215 11 233 l5 32 71 0 70 0 -6 -87z m1064 35 c0 -29 -5 -171
-12 -315 l-12 -263 -118 0 -118 0 0 31 c0 55 20 471 26 537 l6 62 114 0 114 0
0 -52z m-250 -13 c0 -8 -15 -24 -32 -35 -57 -35 -168 -21 -176 22 -3 15 6 16
70 11 41 -3 84 0 98 5 35 15 40 14 40 -3z m-470 -45 l0 -40 -85 0 -85 0 0 40
0 40 85 0 85 0 0 -40z m-190 21 c0 -10 -49 -21 -96 -21 -24 0 -34 5 -34 15 0
12 14 15 65 15 36 0 65 -4 65 -9z m641 -295 c-6 -138 -14 -281 -17 -318 l-6
-68 -98 0 -98 0 4 78 c2 42 9 187 15 322 6 135 12 246 14 248 1 1 14 -2 29 -8
38 -14 106 -12 136 5 17 9 26 10 29 3 2 -6 -2 -124 -8 -262z m-645 47 c-4
-120 -9 -232 -12 -250 -4 -30 -6 -32 -31 -22 -25 9 -49 8 -86 -7 -14 -5 -15
16 -11 168 3 95 7 205 10 245 6 80 6 80 87 82 l49 1 -6 -217z m190 100 c-3
-38 -11 -156 -16 -263 -6 -107 -13 -214 -16 -237 l-5 -43 -76 0 -76 0 7 168
c3 92 9 229 13 305 l6 137 84 0 85 0 -6 -67z m-231 -395 c24 -11 25 -14 25
-109 0 -53 -3 -104 -6 -113 -5 -12 -21 -16 -68 -16 l-61 0 5 111 c5 105 6 111
30 124 31 18 42 18 75 3z m927 -43 c-4 -25 -4 -25 -123 -25 -66 0 -119 4 -119
9 0 38 10 41 130 41 l117 0 -5 -25z m-572 -20 c11 -13 8 -15 -15 -15 -23 0
-26 2 -15 15 7 8 14 15 15 15 1 0 8 -7 15 -15z m-480 -20 c0 -24 -3 -25 -57
-25 -77 0 -103 8 -103 31 0 17 8 19 80 19 79 0 80 0 80 -25z m558 -2 c-10 -2
-28 -2 -40 0 -13 2 -5 4 17 4 22 1 32 -1 23 -4z m490 -75 l-3 -73 -117 -3
-118 -3 0 76 0 75 120 0 121 0 -3 -72z m-537 52 c39 0 69 -4 69 -10 0 -12
-227 -14 -234 -1 -10 16 10 23 53 17 24 -3 75 -6 112 -6z m-521 -75 l0 -55
-75 0 c-83 0 -81 -2 -69 73 l7 37 68 0 69 0 0 -55z m513 38 l67 -6 0 -43 0
-44 -115 0 c-127 0 -123 -3 -109 69 6 29 10 31 48 31 22 0 71 -3 109 -7z m287
-53 l0 -40 -100 0 -100 0 0 40 0 40 100 0 100 0 0 -40z m-470 20 c0 -13 -120
-13 -140 0 -10 7 9 10 63 10 45 0 77 -4 77 -10z m0 -40 c0 -18 -7 -20 -79 -20
-74 0 -79 1 -74 20 5 18 14 20 79 20 67 0 74 -2 74 -20z"/>
<path d="M1105 1085 c-30 -29 -32 -56 -7 -78 39 -35 112 -6 112 44 0 61 -60
80 -105 34z m83 3 c28 -28 0 -88 -40 -88 -31 0 -58 19 -58 40 0 44 68 78 98
48z"/>
<path d="M630 934 l0 -35 48 3 c43 3 47 5 50 31 2 16 -1 27 -9 27 -6 0 -9 -8
-6 -20 3 -13 0 -20 -9 -20 -8 0 -14 9 -14 20 0 11 -4 20 -10 20 -5 0 -10 -9
-10 -20 0 -11 -4 -20 -10 -20 -5 0 -10 11 -10 25 0 14 -4 25 -10 25 -5 0 -10
-16 -10 -36z"/>
<path d="M620 870 c-9 -17 -7 -25 12 -45 13 -14 31 -25 40 -25 9 0 24 -3 33
-6 30 -12 -6 -23 -52 -17 l-43 6 1 -49 c0 -44 2 -47 12 -25 10 21 16 23 54 17
24 -3 43 -2 43 4 0 5 -20 12 -45 16 -25 3 -45 10 -45 14 0 5 13 5 30 0 54 -16
96 13 65 44 -11 11 -12 16 -2 20 9 5 9 7 -1 12 -10 5 -9 10 4 25 23 26 9 37
-17 13 -19 -17 -21 -18 -30 -1 -13 23 -46 22 -59 -3z m44 -15 c4 -10 -1 -15
-14 -15 -20 0 -26 11 -13 23 10 11 20 8 27 -8z"/>
<path d="M657 693 c-27 -8 -47 -19 -45 -25 2 -6 23 -18 47 -28 35 -13 40 -18
28 -28 -11 -10 -17 -9 -27 3 -13 15 -49 21 -51 8 -6 -47 -5 -183 2 -183 5 0 9
5 9 11 0 7 16 8 45 3 60 -9 58 10 -2 23 l-48 10 48 2 c45 1 47 2 47 31 0 17
-4 30 -10 30 -5 0 -10 -9 -10 -20 0 -27 -18 -25 -23 3 l-4 22 -8 -22 c-10 -30
-22 -29 -27 2 -5 24 -3 25 38 25 24 0 44 5 44 10 0 6 -4 10 -9 10 -6 0 -3 12
5 28 13 25 12 28 -6 36 -25 11 -25 25 -3 42 28 20 12 23 -40 7z m-9 -101 c2
-7 -3 -12 -12 -12 -9 0 -16 7 -16 16 0 17 22 14 28 -4z"/>
<path d="M605 420 c3 -5 24 -10 46 -10 32 0 39 -3 39 -20 0 -17 -7 -20 -51
-20 -31 0 -48 -4 -44 -10 8 -12 102 -13 109 -1 3 5 3 23 0 40 -6 30 -9 31 -56
31 -30 0 -47 -4 -43 -10z"/>
<path d="M84 866 c11 -9 14 -16 8 -16 -7 0 -12 -5 -12 -11 0 -7 7 -8 18 -4 9
4 32 7 50 6 17 -1 32 3 32 8 0 5 -15 11 -32 14 -18 3 -44 8 -58 12 -24 6 -24
6 -6 -9z"/>
<path d="M77 807 c-3 -7 -3 -35 0 -61 4 -33 9 -44 16 -37 6 6 24 11 39 11 15
0 28 5 28 10 0 6 -13 10 -30 10 -16 0 -30 5 -30 10 0 6 11 10 24 10 25 0 48
20 24 20 -8 1 -6 6 6 15 24 19 15 30 -13 16 -13 -7 -22 -8 -26 -1 -9 14 -32
12 -38 -3z"/>
<path d="M82 663 c3 -24 8 -28 41 -31 35 -3 37 -2 37 27 0 17 -4 31 -10 31 -5
0 -10 -10 -10 -22 0 -21 0 -21 -15 -2 -14 19 -14 19 -15 -1 -1 -18 -2 -18 -10
3 -13 30 -22 28 -18 -5z"/>
<path d="M70 611 c0 -5 8 -12 18 -16 16 -6 16 -7 0 -16 -10 -6 -18 -14 -18
-19 0 -6 8 -10 18 -10 16 -1 16 -1 0 -11 -35 -20 -15 -69 27 -69 42 0 62 49
28 69 -17 10 -16 10 2 11 18 1 18 2 -4 14 l-23 13 23 21 23 22 -47 0 c-26 0
-47 -4 -47 -9z m68 -104 c2 -11 -3 -17 -17 -17 -23 0 -35 15 -26 31 10 15 39
6 43 -14z"/>
<path d="M60 450 c0 -22 28 -40 64 -40 30 0 40 14 27 37 -10 17 -10 17 -11 1
0 -10 -4 -18 -10 -18 -5 0 -10 7 -10 15 0 21 -17 19 -23 -2 -4 -15 -6 -15 -12
5 -9 27 -25 29 -25 2z"/>
<path d="M62 378 c2 -12 15 -29 30 -38 25 -13 29 -13 45 3 14 13 15 21 7 35
-15 22 -44 28 -44 8 0 -10 6 -13 15 -10 10 4 15 0 15 -11 0 -24 -33 -15 -45
13 -13 28 -27 29 -23 0z"/>
<path d="M1108 823 c17 -3 22 -11 22 -35 0 -27 -2 -30 -26 -24 -17 5 -23 3
-19 -4 3 -5 27 -9 53 -9 26 1 37 4 25 6 -16 3 -23 11 -23 29 0 18 6 24 23 25
21 0 21 1 2 9 -11 5 -33 8 -50 8 -23 -1 -25 -2 -7 -5z"/>
<path d="M1083 680 c0 -34 2 -42 4 -21 4 34 4 34 49 27 26 -3 44 -2 44 4 0 6
-20 10 -44 10 -34 0 -46 4 -49 18 -3 9 -4 -8 -4 -38z"/>
<path d="M1111 612 c-24 -9 -46 -22 -48 -28 -4 -11 66 -25 111 -23 18 1 18 2
-4 8 -33 9 -38 38 -8 50 13 6 16 10 8 10 -8 0 -35 -8 -59 -17z m19 -17 c0 -10
-10 -15 -27 -15 l-28 1 25 14 c31 18 30 18 30 0z"/>
<path d="M1060 521 c0 -5 14 -14 31 -21 l31 -13 -28 -15 c-27 -14 -27 -16 -9
-23 11 -4 40 -7 65 -7 31 1 35 2 15 5 -53 7 -60 12 -41 26 16 12 15 14 -11 27
l-28 14 55 7 55 6 -67 1 c-38 1 -68 -2 -68 -7z"/>
<path d="M941 758 c-1 -20 -6 -28 -20 -28 -11 0 -22 8 -24 18 -4 16 -5 16 -6
0 -2 -26 -30 -22 -41 5 -10 22 -10 22 -7 -3 2 -21 8 -26 44 -31 54 -7 66 1 60
37 l-4 29 -2 -27z"/>
<path d="M844 686 c-9 -22 14 -55 43 -62 35 -9 58 7 60 42 1 18 0 22 -4 9 -8
-29 -23 -45 -43 -45 -23 0 -54 36 -47 55 4 8 4 15 1 15 -2 0 -7 -6 -10 -14z"/>
<path d="M875 600 l40 -6 -45 -21 c-39 -19 -42 -22 -19 -22 15 -1 42 -3 60 -6
l34 -5 -33 13 -33 12 31 12 c47 18 37 33 -22 32 -53 -2 -53 -2 -13 -9z"/>
<path d="M833 498 c2 -32 3 -33 55 -36 l52 -3 -2 38 c-1 37 -1 37 -5 6 -3 -24
-9 -33 -23 -33 -10 0 -21 8 -23 18 -4 16 -5 16 -6 0 -2 -32 -39 -22 -45 12 -6
30 -6 30 -3 -2z"/>
<path d="M853 423 c15 -2 39 -2 55 0 15 2 2 4 -28 4 -30 0 -43 -2 -27 -4z"/>
<path d="M834 386 c-8 -22 14 -55 41 -62 33 -8 55 11 54 45 l-2 26 -4 -27 c-5
-34 -29 -43 -60 -23 -17 11 -22 22 -18 36 7 22 -3 26 -11 5z"/>
<path d="M822 293 c4 -36 33 -42 63 -13 26 24 48 20 38 -8 -4 -13 -3 -14 6 -6
15 14 4 44 -17 44 -9 0 -26 -9 -38 -21 -25 -24 -48 -17 -41 12 3 11 1 19 -5
19 -5 0 -8 -12 -6 -27z"/>
<path d="M232 645 c0 -22 2 -32 5 -22 3 12 15 17 39 17 19 0 34 5 34 10 0 6
-15 10 -34 10 -19 0 -37 6 -39 13 -3 6 -5 -6 -5 -28z"/>
<path d="M224 575 c-15 -38 22 -56 71 -35 17 7 17 9 3 9 -10 1 -23 10 -30 21
-15 24 -36 26 -44 5z m34 -18 c2 -10 -3 -17 -12 -17 -10 0 -16 9 -16 21 0 24
23 21 28 -4z"/>
<path d="M289 573 c-13 -16 -12 -17 4 -4 9 7 17 15 17 17 0 8 -8 3 -21 -13z"/>
<path d="M263 507 c-56 -21 -53 -28 27 -52 20 -6 23 -5 13 6 -7 7 -13 21 -13
30 0 10 6 20 13 22 25 11 -9 5 -40 -6z m4 -23 c-3 -3 -12 -4 -19 -1 -8 3 -5 6
6 6 11 1 17 -2 13 -5z"/>
<path d="M410 695 c11 -13 10 -18 -6 -31 -19 -15 -18 -15 1 -8 11 4 38 10 60
14 22 4 31 8 20 9 -11 1 -33 8 -49 16 -36 19 -42 19 -26 0z"/>
<path d="M397 633 c-4 -3 -7 -17 -7 -30 0 -21 4 -23 53 -22 28 1 44 3 34 6
-17 4 -17 7 5 31 l23 26 -28 -17 c-25 -16 -29 -16 -43 -2 -17 16 -27 19 -37 8z
m33 -28 c0 -8 -7 -15 -15 -15 -8 0 -15 7 -15 15 0 8 7 15 15 15 8 0 15 -7 15
-15z"/>
<path d="M402 558 c-20 -20 -14 -37 18 -53 34 -18 65 -13 74 12 15 37 -62 71
-92 41z m62 -4 c9 -3 16 -15 16 -25 0 -24 -51 -27 -70 -4 -22 27 12 45 54 29z"/>
<path d="M388 475 c-3 -14 -1 -28 3 -31 5 -3 9 0 9 5 0 6 19 12 43 13 40 1 40
1 7 5 -19 2 -40 11 -46 19 -10 12 -12 10 -16 -11z"/>
<path d="M387 423 c-11 -17 3 -43 24 -43 11 0 22 7 25 15 9 23 24 18 24 -7 1
-21 1 -22 11 -4 9 14 7 22 -6 35 -16 15 -18 14 -32 -6 -9 -13 -19 -23 -24 -23
-4 0 -9 10 -11 23 -2 14 -6 18 -11 10z"/>
<path d="M385 355 c23 -8 85 -10 85 -3 0 4 -21 8 -47 7 -27 0 -43 -2 -38 -4z"/>
<path d="M380 320 c0 -5 9 -10 20 -10 11 0 20 -7 20 -15 0 -10 -10 -15 -27
-15 -38 0 -25 -6 30 -14 31 -5 47 -4 47 3 0 6 -9 11 -20 11 -28 0 -26 30 3 31
21 1 21 1 -3 9 -36 12 -70 12 -70 0z"/>
<path d="M67 174 c-14 -14 -7 -53 12 -63 26 -14 54 8 49 40 -2 17 -10 25 -28
27 -14 2 -29 0 -33 -4z m42 -13 c17 -11 7 -41 -13 -41 -19 0 -29 17 -22 35 6
17 15 18 35 6z"/>
</g>
</svg>
